# xmcd CD database file
#
# Track frame offsets:
#	151
#	111842
#	224002
#
# Disc length: 4484 seconds
#
# Revision: 3
# Processed by: cddbd v1.5.1PL0 Copyright (c) Steve Scherf et al.
# Submitted via: CDex 1.51
#
DISCID=2a118203
DTITLE=LaHaye and Jenkins - Tribulation Force [CD4]
DYEAR=1900
DGENRE=Blues
TTITLE0=10 Evangelism Explosion
TTITLE1=11 Unfolding Plans
TTITLE2=12 Death Strike
EXTD=
EXTT0=
EXTT1=
EXTT2=
PLAYORDER=
